<svg xmlns="http://www.w3.org/2000/svg" xmlns:xlink="http://www.w3.org/1999/xlink" width="500" zoomAndPan="magnify" viewBox="0 0 375 225" height="300" preserveAspectRatio="xMidYMid meet" version="1.0"><defs><g/><clipPath id="c2748d1b71"><path d="M 114 30 L 135 30 L 135 78 L 114 78 Z M 114 30 " clip-rule="nonzero"/></clipPath><clipPath id="8b7f67df50"><path d="M 176.257812 0 L 219.890625 65.558594 L 146.214844 114.59375 L 102.585938 49.035156 Z M 176.257812 0 " clip-rule="nonzero"/></clipPath><clipPath id="9f42c85433"><path d="M 176.257812 0 L 219.890625 65.558594 L 146.214844 114.59375 L 102.585938 49.035156 Z M 176.257812 0 " clip-rule="nonzero"/></clipPath><clipPath id="c8327149b2"><path d="M 133.101562 28.722656 L 153.410156 59.234375 L 122.8125 79.597656 L 102.507812 49.085938 Z M 133.101562 28.722656 " clip-rule="nonzero"/></clipPath><clipPath id="42ff3f3313"><path d="M 130 32 L 149 32 L 149 80 L 130 80 Z M 130 32 " clip-rule="nonzero"/></clipPath><clipPath id="7a2766bbf9"><path d="M 176.257812 0 L 219.890625 65.558594 L 146.214844 114.59375 L 102.585938 49.035156 Z M 176.257812 0 " clip-rule="nonzero"/></clipPath><clipPath id="c8063ac272"><path d="M 176.257812 0 L 219.890625 65.558594 L 146.214844 114.59375 L 102.585938 49.035156 Z M 176.257812 0 " clip-rule="nonzero"/></clipPath><clipPath id="7bdce42a3e"><path d="M 156 18 L 191 18 L 191 45 L 156 45 Z M 156 18 " clip-rule="nonzero"/></clipPath><clipPath id="5037845de9"><path d="M 176.257812 0 L 219.890625 65.558594 L 146.214844 114.59375 L 102.585938 49.035156 Z M 176.257812 0 " clip-rule="nonzero"/></clipPath><clipPath id="2dffb84192"><path d="M 176.257812 0 L 219.890625 65.558594 L 146.214844 114.59375 L 102.585938 49.035156 Z M 176.257812 0 " clip-rule="nonzero"/></clipPath><clipPath id="d82608e757"><path d="M 160 25 L 194 25 L 194 51 L 160 51 Z M 160 25 " clip-rule="nonzero"/></clipPath><clipPath id="a959582c9c"><path d="M 176.257812 0 L 219.890625 65.558594 L 146.214844 114.59375 L 102.585938 49.035156 Z M 176.257812 0 " clip-rule="nonzero"/></clipPath><clipPath id="cce6fcdf0b"><path d="M 176.257812 0 L 219.890625 65.558594 L 146.214844 114.59375 L 102.585938 49.035156 Z M 176.257812 0 " clip-rule="nonzero"/></clipPath><clipPath id="ca95033eb2"><path d="M 153 58 L 197 58 L 197 75 L 153 75 Z M 153 58 " clip-rule="nonzero"/></clipPath><clipPath id="8269950b39"><path d="M 176.257812 0 L 219.890625 65.558594 L 146.214844 114.59375 L 102.585938 49.035156 Z M 176.257812 0 " clip-rule="nonzero"/></clipPath><clipPath id="6a1c490188"><path d="M 176.257812 0 L 219.890625 65.558594 L 146.214844 114.59375 L 102.585938 49.035156 Z M 176.257812 0 " clip-rule="nonzero"/></clipPath><clipPath id="a00384a10a"><path d="M 152 72 L 195 72 L 195 89 L 152 89 Z M 152 72 " clip-rule="nonzero"/></clipPath><clipPath id="d88e0eca96"><path d="M 176.257812 0 L 219.890625 65.558594 L 146.214844 114.59375 L 102.585938 49.035156 Z M 176.257812 0 " clip-rule="nonzero"/></clipPath><clipPath id="3be1c9d4c3"><path d="M 176.257812 0 L 219.890625 65.558594 L 146.214844 114.59375 L 102.585938 49.035156 Z M 176.257812 0 " clip-rule="nonzero"/></clipPath><clipPath id="e408a70ac6"><path d="M 179.339844 55.394531 L 196.636719 81.378906 L 168.898438 99.839844 L 151.605469 73.855469 Z M 179.339844 55.394531 " clip-rule="nonzero"/></clipPath></defs><g clip-path="url(#c2748d1b71)"><g clip-path="url(#8b7f67df50)"><g clip-path="url(#9f42c85433)"><g clip-path="url(#c8327149b2)"><path fill="#ffffff" d="M 130.671875 68.40625 C 131.367188 64.394531 130.164062 60.605469 128.726562 56.910156 C 127.507812 53.785156 126.554688 50.597656 126.734375 47.203125 C 127.066406 40.933594 130.320312 35.398438 134.355469 30.714844 C 126.285156 30.203125 118.0625 39.214844 115.550781 51.707031 C 113.332031 62.765625 116.296875 73.039062 122.308594 77.082031 C 123.996094 78.21875 126.292969 77.6875 127.394531 75.976562 C 128.890625 73.65625 130.183594 71.230469 130.671875 68.40625 " fill-opacity="1" fill-rule="nonzero"/></g></g></g></g><g clip-path="url(#42ff3f3313)"><g clip-path="url(#7a2766bbf9)"><g clip-path="url(#c8063ac272)"><path fill="#ffffff" d="M 142.179688 33.570312 C 140.617188 32.269531 138.28125 32.582031 137.011719 34.171875 C 135.214844 36.421875 133.664062 38.851562 132.554688 41.53125 C 132.410156 41.882812 132.277344 42.238281 132.148438 42.59375 C 132.128906 42.648438 132.039062 42.914062 132.023438 42.96875 C 131.972656 43.125 131.925781 43.285156 131.878906 43.441406 C 131.6875 44.097656 131.527344 44.761719 131.40625 45.429688 C 131.289062 46.054688 131.21875 46.683594 131.160156 47.3125 C 131.160156 47.316406 131.160156 47.316406 131.160156 47.320312 C 131.15625 47.375 131.152344 47.429688 131.152344 47.484375 C 131.144531 47.628906 131.140625 47.773438 131.136719 47.917969 C 131.132812 48.164062 131.132812 48.414062 131.136719 48.664062 C 131.175781 50.464844 131.472656 51.96875 132.019531 53.648438 C 132.550781 55.289062 133.246094 56.875 133.824219 58.5 C 135.28125 62.609375 135.859375 67.144531 134.539062 71.371094 C 133.863281 73.53125 132.847656 75.539062 131.636719 77.445312 C 131.257812 78.039062 130.863281 78.625 130.460938 79.207031 C 138.097656 78.730469 145.582031 70.03125 147.953125 58.214844 C 150.050781 47.773438 147.527344 38.035156 142.179688 33.570312 " fill-opacity="1" fill-rule="nonzero"/></g></g></g><g clip-path="url(#7bdce42a3e)"><g clip-path="url(#5037845de9)"><g clip-path="url(#2dffb84192)"><path fill="#ffffff" d="M 166.925781 41.753906 C 169.648438 39.839844 171.144531 36.953125 172.445312 33.984375 C 173.550781 31.472656 174.839844 29.082031 176.90625 27.222656 C 180.722656 23.792969 185.804688 22.46875 190.847656 22.097656 C 186.476562 17.132812 176.511719 17.589844 167.839844 23.363281 C 160.164062 28.472656 155.9375 36.121094 157.074219 41.9375 C 157.394531 43.570312 159.03125 44.589844 160.65625 44.238281 C 162.863281 43.761719 165.007812 43.105469 166.925781 41.753906 " fill-opacity="1" fill-rule="nonzero"/></g></g></g><g clip-path="url(#d82608e757)"><g clip-path="url(#a959582c9c)"><g clip-path="url(#cce6fcdf0b)"><path fill="#ffffff" d="M 193.714844 28.269531 C 193.566406 26.617188 192.03125 25.445312 190.382812 25.628906 C 188.042969 25.894531 185.738281 26.398438 183.550781 27.308594 C 183.265625 27.425781 182.980469 27.554688 182.703125 27.6875 C 182.660156 27.710938 182.457031 27.808594 182.414062 27.832031 C 182.292969 27.894531 182.171875 27.957031 182.054688 28.023438 C 181.566406 28.289062 181.089844 28.582031 180.632812 28.898438 C 180.203125 29.191406 179.800781 29.515625 179.402344 29.84375 C 179.398438 29.847656 179.398438 29.847656 179.398438 29.847656 C 179.363281 29.878906 179.332031 29.910156 179.296875 29.9375 C 179.210938 30.019531 179.125 30.097656 179.039062 30.179688 C 178.894531 30.320312 178.75 30.464844 178.609375 30.609375 C 177.589844 31.675781 176.890625 32.714844 176.234375 34.003906 C 175.59375 35.261719 175.082031 36.578125 174.472656 37.851562 C 172.941406 41.070312 170.65625 44.023438 167.449219 45.703125 C 165.808594 46.5625 164.0625 47.136719 162.257812 47.539062 C 161.695312 47.664062 161.128906 47.773438 160.5625 47.878906 C 165.25 52.015625 174.605469 51.3125 182.808594 45.851562 C 190.058594 41.03125 194.226562 33.941406 193.714844 28.269531 " fill-opacity="1" fill-rule="nonzero"/></g></g></g><g clip-path="url(#ca95033eb2)"><g clip-path="url(#8269950b39)"><g clip-path="url(#6a1c490188)"><path fill="#ffffff" d="M 162.558594 72.929688 C 166.195312 73.417969 169.570312 72.207031 172.847656 70.785156 C 175.625 69.582031 178.464844 68.617188 181.53125 68.664062 C 187.191406 68.75 192.292969 71.492188 196.648438 74.96875 C 196.835938 67.679688 188.4375 60.574219 177.09375 58.738281 C 167.050781 57.113281 157.894531 60.132812 154.453125 65.6875 C 153.488281 67.246094 154.046875 69.300781 155.625 70.234375 C 157.765625 71.503906 159.992188 72.585938 162.558594 72.929688 " fill-opacity="1" fill-rule="nonzero"/></g></g></g><g clip-path="url(#a00384a10a)"><g clip-path="url(#d88e0eca96)"><g clip-path="url(#3be1c9d4c3)"><g clip-path="url(#e408a70ac6)"><path fill="#ffffff" d="M 194.339844 82.117188 C 195.460938 80.667969 195.097656 78.570312 193.625 77.480469 C 191.535156 75.9375 189.292969 74.621094 186.839844 73.714844 C 186.519531 73.597656 186.195312 73.488281 185.871094 73.382812 C 185.816406 73.371094 185.578125 73.296875 185.527344 73.285156 C 185.382812 73.242188 185.238281 73.207031 185.09375 73.167969 C 184.5 73.019531 183.894531 72.898438 183.285156 72.8125 C 182.71875 72.730469 182.152344 72.6875 181.582031 72.65625 C 181.578125 72.652344 181.578125 72.652344 181.574219 72.652344 C 181.527344 72.652344 181.476562 72.652344 181.425781 72.652344 C 181.296875 72.652344 181.167969 72.652344 181.035156 72.652344 C 180.8125 72.65625 180.589844 72.667969 180.367188 72.679688 C 178.742188 72.777344 177.398438 73.09375 175.902344 73.640625 C 174.441406 74.179688 173.035156 74.859375 171.589844 75.433594 C 167.9375 76.886719 163.871094 77.5625 160.015625 76.515625 C 158.046875 75.976562 156.203125 75.132812 154.445312 74.105469 C 153.894531 73.785156 153.355469 73.449219 152.816406 73.109375 C 153.503906 79.972656 161.601562 86.421875 172.328125 88.15625 C 181.808594 89.691406 190.5 87.085938 194.339844 82.117188 " fill-opacity="1" fill-rule="nonzero"/></g></g></g></g><g fill="#ffffff" fill-opacity="1"><g transform="translate(-1.124299, 157.826009)"><g><path d="M 10.890625 -7.28125 C 5.390625 -13.289062 2.640625 -20.65625 2.640625 -29.375 C 2.640625 -38.09375 5.390625 -45.472656 10.890625 -51.515625 C 16.398438 -57.566406 23.40625 -60.59375 31.90625 -60.59375 C 39.707031 -60.59375 46.128906 -58.144531 51.171875 -53.25 L 51.171875 -58.859375 L 71.484375 -58.859375 L 71.484375 0 L 51.40625 0 L 51.40625 -6.65625 L 51.171875 -6.65625 C 46.128906 -1.070312 39.707031 1.71875 31.90625 1.71875 C 23.40625 1.71875 16.398438 -1.28125 10.890625 -7.28125 Z M 28.171875 -39.359375 C 25.535156 -36.753906 24.21875 -33.425781 24.21875 -29.375 C 24.21875 -25.320312 25.476562 -22.015625 28 -19.453125 C 30.519531 -16.890625 33.847656 -15.609375 37.984375 -15.609375 C 41.960938 -15.609375 45.234375 -16.90625 47.796875 -19.5 C 50.359375 -22.101562 51.640625 -25.394531 51.640625 -29.375 C 51.640625 -33.425781 50.316406 -36.753906 47.671875 -39.359375 C 45.035156 -41.960938 41.804688 -43.265625 37.984375 -43.265625 C 34.078125 -43.265625 30.804688 -41.960938 28.171875 -39.359375 Z M 28.171875 -39.359375 "/></g></g></g><g fill="#ffffff" fill-opacity="1"><g transform="translate(67.490004, 157.826009)"><g><path d="M 6.890625 0 L 6.890625 -58.859375 L 27.203125 -58.859375 L 27.203125 -52.671875 L 27.421875 -52.671875 C 32.703125 -57.953125 38.328125 -60.59375 44.296875 -60.59375 C 48.578125 -60.59375 52.59375 -59.710938 56.34375 -57.953125 C 60.09375 -56.191406 62.921875 -53.472656 64.828125 -49.796875 C 70.796875 -56.992188 77.300781 -60.59375 84.34375 -60.59375 C 90.613281 -60.59375 96.003906 -58.832031 100.515625 -55.3125 C 105.035156 -51.789062 107.296875 -46.28125 107.296875 -38.78125 L 107.296875 0 L 86.984375 0 L 86.984375 -33.28125 C 86.984375 -36.414062 86.117188 -39.035156 84.390625 -41.140625 C 82.671875 -43.242188 80.09375 -44.296875 76.65625 -44.296875 C 73.664062 -44.296875 71.382812 -43.394531 69.8125 -41.59375 C 68.25 -39.800781 67.394531 -37.640625 67.25 -35.109375 L 67.25 0 L 46.9375 0 L 46.9375 -33.28125 C 46.9375 -36.414062 46.070312 -39.035156 44.34375 -41.140625 C 42.625 -43.242188 40.046875 -44.296875 36.609375 -44.296875 C 33.472656 -44.296875 31.117188 -43.316406 29.546875 -41.359375 C 27.984375 -39.410156 27.203125 -37.097656 27.203125 -34.421875 L 27.203125 0 Z M 6.890625 0 "/></g></g></g><g fill="#ffffff" fill-opacity="1"><g transform="translate(170.756185, 157.826009)"><g><path d="M 10.890625 -7.28125 C 5.390625 -13.289062 2.640625 -20.65625 2.640625 -29.375 C 2.640625 -38.09375 5.390625 -45.472656 10.890625 -51.515625 C 16.398438 -57.566406 23.40625 -60.59375 31.90625 -60.59375 C 39.707031 -60.59375 46.128906 -58.144531 51.171875 -53.25 L 51.171875 -58.859375 L 71.484375 -58.859375 L 71.484375 0 L 51.40625 0 L 51.40625 -6.65625 L 51.171875 -6.65625 C 46.128906 -1.070312 39.707031 1.71875 31.90625 1.71875 C 23.40625 1.71875 16.398438 -1.28125 10.890625 -7.28125 Z M 28.171875 -39.359375 C 25.535156 -36.753906 24.21875 -33.425781 24.21875 -29.375 C 24.21875 -25.320312 25.476562 -22.015625 28 -19.453125 C 30.519531 -16.890625 33.847656 -15.609375 37.984375 -15.609375 C 41.960938 -15.609375 45.234375 -16.90625 47.796875 -19.5 C 50.359375 -22.101562 51.640625 -25.394531 51.640625 -29.375 C 51.640625 -33.425781 50.316406 -36.753906 47.671875 -39.359375 C 45.035156 -41.960938 41.804688 -43.265625 37.984375 -43.265625 C 34.078125 -43.265625 30.804688 -41.960938 28.171875 -39.359375 Z M 28.171875 -39.359375 "/></g></g></g><g fill="#ffffff" fill-opacity="1"><g transform="translate(239.370488, 157.826009)"><g><path d="M 51.515625 -58.859375 L 74.9375 -58.859375 L 28.6875 29.828125 L 5.28125 29.828125 L 25.59375 -9.1875 L -2.296875 -58.859375 L 21.109375 -58.859375 L 37.515625 -28.6875 Z M 51.515625 -58.859375 "/></g></g></g><g fill="#ffffff" fill-opacity="1"><g transform="translate(302.247739, 157.826009)"><g><path d="M 10.890625 -7.28125 C 5.390625 -13.289062 2.640625 -20.65625 2.640625 -29.375 C 2.640625 -38.09375 5.390625 -45.472656 10.890625 -51.515625 C 16.398438 -57.566406 23.40625 -60.59375 31.90625 -60.59375 C 39.707031 -60.59375 46.128906 -58.144531 51.171875 -53.25 L 51.171875 -58.859375 L 71.484375 -58.859375 L 71.484375 0 L 51.40625 0 L 51.40625 -6.65625 L 51.171875 -6.65625 C 46.128906 -1.070312 39.707031 1.71875 31.90625 1.71875 C 23.40625 1.71875 16.398438 -1.28125 10.890625 -7.28125 Z M 28.171875 -39.359375 C 25.535156 -36.753906 24.21875 -33.425781 24.21875 -29.375 C 24.21875 -25.320312 25.476562 -22.015625 28 -19.453125 C 30.519531 -16.890625 33.847656 -15.609375 37.984375 -15.609375 C 41.960938 -15.609375 45.234375 -16.90625 47.796875 -19.5 C 50.359375 -22.101562 51.640625 -25.394531 51.640625 -29.375 C 51.640625 -33.425781 50.316406 -36.753906 47.671875 -39.359375 C 45.035156 -41.960938 41.804688 -43.265625 37.984375 -43.265625 C 34.078125 -43.265625 30.804688 -41.960938 28.171875 -39.359375 Z M 28.171875 -39.359375 "/></g></g></g><g fill="#ffffff" fill-opacity="1"><g transform="translate(51.50383, 205.99285)"><g><path d="M 13.453125 0.46875 C 11.109375 0.46875 9.023438 -0.046875 7.203125 -1.078125 C 5.390625 -2.109375 3.972656 -3.53125 2.953125 -5.34375 C 1.929688 -7.164062 1.421875 -9.257812 1.421875 -11.625 C 1.421875 -14 1.929688 -16.09375 2.953125 -17.90625 C 3.972656 -19.726562 5.382812 -21.15625 7.1875 -22.1875 C 9 -23.21875 11.078125 -23.734375 13.421875 -23.734375 C 15.398438 -23.734375 17.207031 -23.351562 18.84375 -22.59375 C 20.476562 -21.84375 21.851562 -20.78125 22.96875 -19.40625 C 24.09375 -18.03125 24.878906 -16.414062 25.328125 -14.5625 L 19.875 -14.5625 C 19.425781 -15.84375 18.632812 -16.851562 17.5 -17.59375 C 16.375 -18.34375 15.070312 -18.71875 13.59375 -18.71875 C 12.28125 -18.71875 11.109375 -18.414062 10.078125 -17.8125 C 9.054688 -17.21875 8.253906 -16.382812 7.671875 -15.3125 C 7.097656 -14.25 6.8125 -13.019531 6.8125 -11.625 C 6.8125 -10.226562 7.097656 -9 7.671875 -7.9375 C 8.253906 -6.875 9.050781 -6.039062 10.0625 -5.4375 C 11.082031 -4.84375 12.25 -4.546875 13.5625 -4.546875 C 15.09375 -4.546875 16.429688 -4.9375 17.578125 -5.71875 C 18.734375 -6.507812 19.554688 -7.570312 20.046875 -8.90625 L 25.484375 -8.90625 C 25.109375 -7.019531 24.351562 -5.375 23.21875 -3.96875 C 22.09375 -2.5625 20.691406 -1.46875 19.015625 -0.6875 C 17.347656 0.0820312 15.492188 0.46875 13.453125 0.46875 Z M 13.453125 0.46875 "/></g></g></g><g fill="#ffffff" fill-opacity="1"><g transform="translate(88.595194, 205.99285)"><g><path d="M 13.828125 0.46875 C 11.410156 0.46875 9.265625 -0.046875 7.390625 -1.078125 C 5.523438 -2.109375 4.0625 -3.53125 3 -5.34375 C 1.945312 -7.164062 1.421875 -9.257812 1.421875 -11.625 C 1.421875 -14 1.945312 -16.09375 3 -17.90625 C 4.0625 -19.726562 5.523438 -21.15625 7.390625 -22.1875 C 9.265625 -23.21875 11.410156 -23.734375 13.828125 -23.734375 C 16.265625 -23.734375 18.410156 -23.21875 20.265625 -22.1875 C 22.128906 -21.15625 23.59375 -19.726562 24.65625 -17.90625 C 25.71875 -16.09375 26.25 -14 26.25 -11.625 C 26.25 -9.257812 25.71875 -7.164062 24.65625 -5.34375 C 23.59375 -3.53125 22.128906 -2.109375 20.265625 -1.078125 C 18.410156 -0.046875 16.265625 0.46875 13.828125 0.46875 Z M 6.8125 -11.625 C 6.8125 -10.226562 7.109375 -9 7.703125 -7.9375 C 8.304688 -6.875 9.132812 -6.039062 10.1875 -5.4375 C 11.238281 -4.84375 12.453125 -4.546875 13.828125 -4.546875 C 15.222656 -4.546875 16.445312 -4.84375 17.5 -5.4375 C 18.550781 -6.039062 19.367188 -6.875 19.953125 -7.9375 C 20.546875 -9 20.84375 -10.226562 20.84375 -11.625 C 20.84375 -13.019531 20.546875 -14.25 19.953125 -15.3125 C 19.367188 -16.382812 18.550781 -17.21875 17.5 -17.8125 C 16.445312 -18.414062 15.222656 -18.71875 13.828125 -18.71875 C 12.453125 -18.71875 11.238281 -18.414062 10.1875 -17.8125 C 9.132812 -17.21875 8.304688 -16.382812 7.703125 -15.3125 C 7.109375 -14.25 6.8125 -13.019531 6.8125 -11.625 Z M 6.8125 -11.625 "/></g></g></g><g fill="#ffffff" fill-opacity="1"><g transform="translate(126.550645, 205.99285)"><g><path d="M 2.796875 0 L 2.796875 -23.265625 L 17.375 -23.265625 L 17.375 -18.484375 L 8.078125 -18.484375 L 8.078125 -12.65625 L 16.515625 -12.65625 L 16.515625 -8.015625 L 8.078125 -8.015625 L 8.078125 0 Z M 2.796875 0 "/></g></g></g><g fill="#ffffff" fill-opacity="1"><g transform="translate(155.665812, 205.99285)"><g><path d="M 2.796875 0 L 2.796875 -23.265625 L 17.375 -23.265625 L 17.375 -18.484375 L 8.078125 -18.484375 L 8.078125 -12.65625 L 16.515625 -12.65625 L 16.515625 -8.015625 L 8.078125 -8.015625 L 8.078125 0 Z M 2.796875 0 "/></g></g></g><g fill="#ffffff" fill-opacity="1"><g transform="translate(184.780992, 205.99285)"><g><path d="M 2.796875 0 L 2.796875 -23.265625 L 18.078125 -23.265625 L 18.078125 -18.8125 L 8.046875 -18.8125 L 8.046875 -13.984375 L 17.1875 -13.984375 L 17.1875 -9.578125 L 8.046875 -9.578125 L 8.046875 -4.484375 L 18.4375 -4.484375 L 18.4375 0 Z M 2.796875 0 "/></g></g></g><g fill="#ffffff" fill-opacity="1"><g transform="translate(215.192289, 205.99285)"><g><path d="M 2.796875 0 L 2.796875 -23.265625 L 18.078125 -23.265625 L 18.078125 -18.8125 L 8.046875 -18.8125 L 8.046875 -13.984375 L 17.1875 -13.984375 L 17.1875 -9.578125 L 8.046875 -9.578125 L 8.046875 -4.484375 L 18.4375 -4.484375 L 18.4375 0 Z M 2.796875 0 "/></g></g></g><g fill="#ffffff" fill-opacity="1"><g transform="translate(245.608732, 205.99285)"><g/></g></g><g fill="#ffffff" fill-opacity="1"><g transform="translate(263.690165, 205.99285)"><g/></g></g></svg>