<svg xmlns="http://www.w3.org/2000/svg" xmlns:xlink="http://www.w3.org/1999/xlink" width="500" zoomAndPan="magnify" viewBox="0 0 375 374.999991" height="500" preserveAspectRatio="xMidYMid meet" version="1.0"><defs><g/><clipPath id="c8f9b75e00"><path d="M 116 121 L 135 121 L 135 164 L 116 164 Z M 116 121 " clip-rule="nonzero"/></clipPath><clipPath id="7bf7e7fe44"><path d="M 172.390625 93.269531 L 212.28125 153.207031 L 144.851562 198.085938 L 104.960938 138.148438 Z M 172.390625 93.269531 " clip-rule="nonzero"/></clipPath><clipPath id="c5a337356f"><path d="M 172.390625 93.269531 L 212.28125 153.207031 L 144.851562 198.085938 L 104.960938 138.148438 Z M 172.390625 93.269531 " clip-rule="nonzero"/></clipPath><clipPath id="8961c9ec0b"><path d="M 133.15625 119.378906 L 151.617188 147.117188 L 123.800781 165.628906 L 105.339844 137.894531 Z M 133.15625 119.378906 " clip-rule="nonzero"/></clipPath><clipPath id="ecf02b26e8"><path d="M 130 123 L 148 123 L 148 166 L 130 166 Z M 130 123 " clip-rule="nonzero"/></clipPath><clipPath id="b13ce039de"><path d="M 172.390625 93.269531 L 212.28125 153.207031 L 144.851562 198.085938 L 104.960938 138.148438 Z M 172.390625 93.269531 " clip-rule="nonzero"/></clipPath><clipPath id="84694ee90f"><path d="M 172.390625 93.269531 L 212.28125 153.207031 L 144.851562 198.085938 L 104.960938 138.148438 Z M 172.390625 93.269531 " clip-rule="nonzero"/></clipPath><clipPath id="7ad3edb898"><path d="M 154 110 L 186 110 L 186 134 L 154 134 Z M 154 110 " clip-rule="nonzero"/></clipPath><clipPath id="09c52ca396"><path d="M 172.390625 93.269531 L 212.28125 153.207031 L 144.851562 198.085938 L 104.960938 138.148438 Z M 172.390625 93.269531 " clip-rule="nonzero"/></clipPath><clipPath id="1ca1a6ca0b"><path d="M 172.390625 93.269531 L 212.28125 153.207031 L 144.851562 198.085938 L 104.960938 138.148438 Z M 172.390625 93.269531 " clip-rule="nonzero"/></clipPath><clipPath id="cb2306a537"><path d="M 158 116 L 189 116 L 189 140 L 158 140 Z M 158 116 " clip-rule="nonzero"/></clipPath><clipPath id="fd51638c04"><path d="M 172.390625 93.269531 L 212.28125 153.207031 L 144.851562 198.085938 L 104.960938 138.148438 Z M 172.390625 93.269531 " clip-rule="nonzero"/></clipPath><clipPath id="a1eacbd476"><path d="M 172.390625 93.269531 L 212.28125 153.207031 L 144.851562 198.085938 L 104.960938 138.148438 Z M 172.390625 93.269531 " clip-rule="nonzero"/></clipPath><clipPath id="f8babb557b"><path d="M 152 146 L 191 146 L 191 162 L 152 162 Z M 152 146 " clip-rule="nonzero"/></clipPath><clipPath id="c4c7d1ad5c"><path d="M 172.390625 93.269531 L 212.28125 153.207031 L 144.851562 198.085938 L 104.960938 138.148438 Z M 172.390625 93.269531 " clip-rule="nonzero"/></clipPath><clipPath id="515e773172"><path d="M 172.390625 93.269531 L 212.28125 153.207031 L 144.851562 198.085938 L 104.960938 138.148438 Z M 172.390625 93.269531 " clip-rule="nonzero"/></clipPath><clipPath id="6b533f998a"><path d="M 151 159 L 190 159 L 190 174 L 151 174 Z M 151 159 " clip-rule="nonzero"/></clipPath><clipPath id="d829c31aaf"><path d="M 172.390625 93.269531 L 212.28125 153.207031 L 144.851562 198.085938 L 104.960938 138.148438 Z M 172.390625 93.269531 " clip-rule="nonzero"/></clipPath><clipPath id="5f953e4e10"><path d="M 172.390625 93.269531 L 212.28125 153.207031 L 144.851562 198.085938 L 104.960938 138.148438 Z M 172.390625 93.269531 " clip-rule="nonzero"/></clipPath><clipPath id="a9256206dc"><path d="M 175.195312 143.628906 L 190.917969 167.25 L 165.699219 184.035156 L 149.976562 160.410156 Z M 175.195312 143.628906 " clip-rule="nonzero"/></clipPath></defs><g clip-path="url(#c8f9b75e00)"><g clip-path="url(#7bf7e7fe44)"><g clip-path="url(#c5a337356f)"><g clip-path="url(#8961c9ec0b)"><path fill="#ffffff" d="M 130.949219 155.457031 C 131.578125 151.808594 130.488281 148.363281 129.179688 145.007812 C 128.070312 142.164062 127.207031 139.265625 127.371094 136.183594 C 127.671875 130.484375 130.628906 125.449219 134.296875 121.1875 C 126.960938 120.726562 119.484375 128.917969 117.203125 140.273438 C 115.183594 150.328125 117.878906 159.667969 123.34375 163.34375 C 124.878906 164.378906 126.964844 163.894531 127.96875 162.339844 C 129.328125 160.230469 130.503906 158.027344 130.949219 155.457031 " fill-opacity="1" fill-rule="nonzero"/></g></g></g></g><g clip-path="url(#ecf02b26e8)"><g clip-path="url(#b13ce039de)"><g clip-path="url(#84694ee90f)"><path fill="#ffffff" d="M 141.410156 123.789062 C 139.992188 122.605469 137.863281 122.890625 136.710938 124.332031 C 135.078125 126.378906 133.667969 128.589844 132.660156 131.023438 C 132.527344 131.34375 132.40625 131.664062 132.289062 131.988281 C 132.273438 132.042969 132.191406 132.28125 132.175781 132.328125 C 132.128906 132.472656 132.085938 132.617188 132.042969 132.761719 C 131.871094 133.355469 131.726562 133.960938 131.613281 134.570312 C 131.511719 135.136719 131.445312 135.707031 131.390625 136.28125 C 131.390625 136.285156 131.390625 136.285156 131.390625 136.285156 C 131.386719 136.335938 131.386719 136.386719 131.382812 136.4375 C 131.378906 136.566406 131.375 136.699219 131.371094 136.832031 C 131.367188 137.054688 131.367188 137.28125 131.371094 137.507812 C 131.40625 139.148438 131.675781 140.511719 132.171875 142.039062 C 132.65625 143.53125 133.289062 144.972656 133.8125 146.449219 C 135.136719 150.1875 135.664062 154.308594 134.460938 158.152344 C 133.847656 160.117188 132.925781 161.941406 131.824219 163.675781 C 131.480469 164.214844 131.121094 164.746094 130.757812 165.273438 C 137.695312 164.839844 144.5 156.933594 146.660156 146.191406 C 148.566406 136.699219 146.269531 127.84375 141.410156 123.789062 " fill-opacity="1" fill-rule="nonzero"/></g></g></g><g clip-path="url(#7ad3edb898)"><g clip-path="url(#09c52ca396)"><g clip-path="url(#1ca1a6ca0b)"><path fill="#ffffff" d="M 163.90625 131.226562 C 166.378906 129.484375 167.742188 126.863281 168.925781 124.164062 C 169.929688 121.882812 171.101562 119.707031 172.980469 118.015625 C 176.449219 114.898438 181.070312 113.695312 185.652344 113.355469 C 181.679688 108.84375 172.621094 109.257812 164.738281 114.507812 C 157.757812 119.152344 153.917969 126.105469 154.949219 131.394531 C 155.242188 132.878906 156.730469 133.804688 158.207031 133.484375 C 160.210938 133.050781 162.164062 132.457031 163.90625 131.226562 " fill-opacity="1" fill-rule="nonzero"/></g></g></g><g clip-path="url(#cb2306a537)"><g clip-path="url(#fd51638c04)"><g clip-path="url(#a1eacbd476)"><path fill="#ffffff" d="M 188.261719 118.96875 C 188.125 117.464844 186.730469 116.398438 185.230469 116.570312 C 183.105469 116.808594 181.011719 117.265625 179.019531 118.09375 C 178.761719 118.203125 178.503906 118.316406 178.25 118.4375 C 178.210938 118.457031 178.023438 118.546875 177.988281 118.570312 C 177.878906 118.625 177.769531 118.683594 177.660156 118.742188 C 177.214844 118.984375 176.785156 119.25 176.367188 119.539062 C 175.980469 119.808594 175.613281 120.101562 175.25 120.398438 C 175.246094 120.402344 175.246094 120.402344 175.246094 120.402344 C 175.214844 120.429688 175.183594 120.457031 175.152344 120.484375 C 175.074219 120.558594 174.996094 120.628906 174.917969 120.707031 C 174.785156 120.832031 174.65625 120.964844 174.527344 121.097656 C 173.601562 122.066406 172.964844 123.007812 172.371094 124.179688 C 171.789062 125.324219 171.320312 126.519531 170.769531 127.679688 C 169.375 130.605469 167.296875 133.292969 164.382812 134.816406 C 162.890625 135.597656 161.304688 136.121094 159.664062 136.484375 C 159.152344 136.597656 158.636719 136.699219 158.121094 136.792969 C 162.382812 140.554688 170.890625 139.917969 178.347656 134.953125 C 184.9375 130.566406 188.726562 124.125 188.261719 118.96875 " fill-opacity="1" fill-rule="nonzero"/></g></g></g><g clip-path="url(#f8babb557b)"><g clip-path="url(#c4c7d1ad5c)"><g clip-path="url(#515e773172)"><path fill="#ffffff" d="M 159.933594 159.570312 C 163.242188 160.015625 166.308594 158.914062 169.292969 157.621094 C 171.816406 156.527344 174.398438 155.648438 177.183594 155.691406 C 182.328125 155.769531 186.96875 158.261719 190.929688 161.425781 C 191.097656 154.796875 183.464844 148.335938 173.148438 146.667969 C 164.019531 145.1875 155.695312 147.933594 152.566406 152.984375 C 151.6875 154.402344 152.195312 156.269531 153.632812 157.117188 C 155.578125 158.273438 157.605469 159.253906 159.933594 159.570312 " fill-opacity="1" fill-rule="nonzero"/></g></g></g><g clip-path="url(#6b533f998a)"><g clip-path="url(#d829c31aaf)"><g clip-path="url(#5f953e4e10)"><g clip-path="url(#a9256206dc)"><path fill="#ffffff" d="M 188.828125 167.921875 C 189.847656 166.601562 189.519531 164.695312 188.179688 163.707031 C 186.277344 162.304688 184.238281 161.105469 182.011719 160.28125 C 181.71875 160.175781 181.425781 160.074219 181.128906 159.980469 C 181.082031 159.96875 180.863281 159.902344 180.816406 159.890625 C 180.6875 159.855469 180.554688 159.820312 180.421875 159.785156 C 179.882812 159.648438 179.332031 159.539062 178.78125 159.460938 C 178.265625 159.386719 177.75 159.347656 177.230469 159.320312 C 177.226562 159.316406 177.226562 159.316406 177.226562 159.316406 C 177.179688 159.316406 177.136719 159.316406 177.089844 159.316406 C 176.972656 159.316406 176.851562 159.316406 176.734375 159.316406 C 176.53125 159.320312 176.328125 159.328125 176.125 159.339844 C 174.648438 159.429688 173.425781 159.714844 172.066406 160.214844 C 170.738281 160.703125 169.460938 161.324219 168.148438 161.84375 C 164.824219 163.167969 161.128906 163.78125 157.625 162.828125 C 155.835938 162.339844 154.160156 161.574219 152.558594 160.640625 C 152.058594 160.347656 151.566406 160.039062 151.082031 159.730469 C 151.707031 165.96875 159.066406 171.832031 168.820312 173.414062 C 177.4375 174.808594 185.339844 172.441406 188.828125 167.921875 " fill-opacity="1" fill-rule="nonzero"/></g></g></g></g><g fill="#ffffff" fill-opacity="1"><g transform="translate(0.450478, 235.191018)"><g><path d="M 10.6875 -7.140625 C 5.289062 -13.023438 2.59375 -20.238281 2.59375 -28.78125 C 2.59375 -37.332031 5.289062 -44.566406 10.6875 -50.484375 C 16.082031 -56.398438 22.9375 -59.359375 31.25 -59.359375 C 38.894531 -59.359375 45.191406 -56.960938 50.140625 -52.171875 L 50.140625 -57.6875 L 70.046875 -57.6875 L 70.046875 0 L 50.375 0 L 50.375 -6.515625 L 50.140625 -6.515625 C 45.191406 -1.046875 38.894531 1.6875 31.25 1.6875 C 22.9375 1.6875 16.082031 -1.253906 10.6875 -7.140625 Z M 27.59375 -38.5625 C 25.007812 -36.019531 23.71875 -32.757812 23.71875 -28.78125 C 23.71875 -24.8125 24.953125 -21.570312 27.421875 -19.0625 C 29.898438 -16.550781 33.164062 -15.296875 37.21875 -15.296875 C 41.113281 -15.296875 44.316406 -16.566406 46.828125 -19.109375 C 49.335938 -21.660156 50.59375 -24.882812 50.59375 -28.78125 C 50.59375 -32.757812 49.300781 -36.019531 46.71875 -38.5625 C 44.132812 -41.113281 40.96875 -42.390625 37.21875 -42.390625 C 33.394531 -42.390625 30.1875 -41.113281 27.59375 -38.5625 Z M 27.59375 -38.5625 "/></g></g></g><g fill="#ffffff" fill-opacity="1"><g transform="translate(67.687532, 235.191018)"><g><path d="M 6.75 0 L 6.75 -57.6875 L 26.640625 -57.6875 L 26.640625 -51.609375 L 26.875 -51.609375 C 32.039062 -56.773438 37.550781 -59.359375 43.40625 -59.359375 C 47.601562 -59.359375 51.535156 -58.492188 55.203125 -56.765625 C 58.878906 -55.046875 61.65625 -52.390625 63.53125 -48.796875 C 69.375 -55.835938 75.742188 -59.359375 82.640625 -59.359375 C 88.785156 -59.359375 94.066406 -57.632812 98.484375 -54.1875 C 102.910156 -50.738281 105.125 -45.34375 105.125 -38 L 105.125 0 L 85.234375 0 L 85.234375 -32.609375 C 85.234375 -35.679688 84.390625 -38.25 82.703125 -40.3125 C 81.015625 -42.375 78.484375 -43.40625 75.109375 -43.40625 C 72.179688 -43.40625 69.945312 -42.519531 68.40625 -40.75 C 66.875 -38.988281 66.035156 -36.875 65.890625 -34.40625 L 65.890625 0 L 45.984375 0 L 45.984375 -32.609375 C 45.984375 -35.679688 45.140625 -38.25 43.453125 -40.3125 C 41.765625 -42.375 39.238281 -43.40625 35.875 -43.40625 C 32.789062 -43.40625 30.476562 -42.445312 28.9375 -40.53125 C 27.40625 -38.625 26.640625 -36.359375 26.640625 -33.734375 L 26.640625 0 Z M 6.75 0 "/></g></g></g><g fill="#ffffff" fill-opacity="1"><g transform="translate(168.880641, 235.191018)"><g><path d="M 10.6875 -7.140625 C 5.289062 -13.023438 2.59375 -20.238281 2.59375 -28.78125 C 2.59375 -37.332031 5.289062 -44.566406 10.6875 -50.484375 C 16.082031 -56.398438 22.9375 -59.359375 31.25 -59.359375 C 38.894531 -59.359375 45.191406 -56.960938 50.140625 -52.171875 L 50.140625 -57.6875 L 70.046875 -57.6875 L 70.046875 0 L 50.375 0 L 50.375 -6.515625 L 50.140625 -6.515625 C 45.191406 -1.046875 38.894531 1.6875 31.25 1.6875 C 22.9375 1.6875 16.082031 -1.253906 10.6875 -7.140625 Z M 27.59375 -38.5625 C 25.007812 -36.019531 23.71875 -32.757812 23.71875 -28.78125 C 23.71875 -24.8125 24.953125 -21.570312 27.421875 -19.0625 C 29.898438 -16.550781 33.164062 -15.296875 37.21875 -15.296875 C 41.113281 -15.296875 44.316406 -16.566406 46.828125 -19.109375 C 49.335938 -21.660156 50.59375 -24.882812 50.59375 -28.78125 C 50.59375 -32.757812 49.300781 -36.019531 46.71875 -38.5625 C 44.132812 -41.113281 40.96875 -42.390625 37.21875 -42.390625 C 33.394531 -42.390625 30.1875 -41.113281 27.59375 -38.5625 Z M 27.59375 -38.5625 "/></g></g></g><g fill="#ffffff" fill-opacity="1"><g transform="translate(236.117696, 235.191018)"><g><path d="M 50.484375 -57.6875 L 73.421875 -57.6875 L 28.109375 29.234375 L 5.171875 29.234375 L 25.078125 -9 L -2.25 -57.6875 L 20.6875 -57.6875 L 36.765625 -28.109375 Z M 50.484375 -57.6875 "/></g></g></g><g fill="#ffffff" fill-opacity="1"><g transform="translate(297.732904, 235.191018)"><g><path d="M 10.6875 -7.140625 C 5.289062 -13.023438 2.59375 -20.238281 2.59375 -28.78125 C 2.59375 -37.332031 5.289062 -44.566406 10.6875 -50.484375 C 16.082031 -56.398438 22.9375 -59.359375 31.25 -59.359375 C 38.894531 -59.359375 45.191406 -56.960938 50.140625 -52.171875 L 50.140625 -57.6875 L 70.046875 -57.6875 L 70.046875 0 L 50.375 0 L 50.375 -6.515625 L 50.140625 -6.515625 C 45.191406 -1.046875 38.894531 1.6875 31.25 1.6875 C 22.9375 1.6875 16.082031 -1.253906 10.6875 -7.140625 Z M 27.59375 -38.5625 C 25.007812 -36.019531 23.71875 -32.757812 23.71875 -28.78125 C 23.71875 -24.8125 24.953125 -21.570312 27.421875 -19.0625 C 29.898438 -16.550781 33.164062 -15.296875 37.21875 -15.296875 C 41.113281 -15.296875 44.316406 -16.566406 46.828125 -19.109375 C 49.335938 -21.660156 50.59375 -24.882812 50.59375 -28.78125 C 50.59375 -32.757812 49.300781 -36.019531 46.71875 -38.5625 C 44.132812 -41.113281 40.96875 -42.390625 37.21875 -42.390625 C 33.394531 -42.390625 30.1875 -41.113281 27.59375 -38.5625 Z M 27.59375 -38.5625 "/></g></g></g><g fill="#ffffff" fill-opacity="1"><g transform="translate(129.639409, 277.595008)"><g><path d="M 7.1875 0.234375 C 6.289062 0.234375 5.460938 0.078125 4.703125 -0.234375 C 3.953125 -0.554688 3.300781 -1 2.75 -1.5625 C 2.195312 -2.125 1.769531 -2.789062 1.46875 -3.5625 C 1.164062 -4.332031 1.015625 -5.179688 1.015625 -6.109375 C 1.015625 -7.023438 1.164062 -7.867188 1.46875 -8.640625 C 1.769531 -9.410156 2.195312 -10.078125 2.75 -10.640625 C 3.300781 -11.203125 3.953125 -11.640625 4.703125 -11.953125 C 5.460938 -12.273438 6.289062 -12.4375 7.1875 -12.4375 C 8.144531 -12.4375 9.03125 -12.257812 9.84375 -11.90625 C 10.65625 -11.550781 11.347656 -11.046875 11.921875 -10.390625 C 12.492188 -9.734375 12.914062 -8.957031 13.1875 -8.0625 L 11.546875 -8.0625 C 11.234375 -8.9375 10.6875 -9.625 9.90625 -10.125 C 9.132812 -10.632812 8.242188 -10.890625 7.234375 -10.890625 C 6.328125 -10.890625 5.523438 -10.6875 4.828125 -10.28125 C 4.128906 -9.875 3.578125 -9.3125 3.171875 -8.59375 C 2.773438 -7.875 2.578125 -7.046875 2.578125 -6.109375 C 2.578125 -5.160156 2.773438 -4.328125 3.171875 -3.609375 C 3.578125 -2.890625 4.128906 -2.328125 4.828125 -1.921875 C 5.523438 -1.515625 6.328125 -1.3125 7.234375 -1.3125 C 8.265625 -1.3125 9.179688 -1.578125 9.984375 -2.109375 C 10.785156 -2.640625 11.347656 -3.367188 11.671875 -4.296875 L 13.28125 -4.296875 C 13.039062 -3.378906 12.625 -2.582031 12.03125 -1.90625 C 11.445312 -1.238281 10.738281 -0.710938 9.90625 -0.328125 C 9.082031 0.046875 8.175781 0.234375 7.1875 0.234375 Z M 7.1875 0.234375 "/></g></g></g><g fill="#ffffff" fill-opacity="1"><g transform="translate(149.24952, 277.595008)"><g><path d="M 7.328125 0.234375 C 6.085938 0.234375 4.988281 -0.0351562 4.03125 -0.578125 C 3.082031 -1.117188 2.34375 -1.863281 1.8125 -2.8125 C 1.28125 -3.769531 1.015625 -4.867188 1.015625 -6.109375 C 1.015625 -7.347656 1.28125 -8.441406 1.8125 -9.390625 C 2.34375 -10.335938 3.082031 -11.082031 4.03125 -11.625 C 4.988281 -12.164062 6.085938 -12.4375 7.328125 -12.4375 C 8.566406 -12.4375 9.660156 -12.164062 10.609375 -11.625 C 11.554688 -11.082031 12.300781 -10.335938 12.84375 -9.390625 C 13.382812 -8.441406 13.65625 -7.347656 13.65625 -6.109375 C 13.65625 -4.867188 13.382812 -3.769531 12.84375 -2.8125 C 12.300781 -1.863281 11.554688 -1.117188 10.609375 -0.578125 C 9.660156 -0.0351562 8.566406 0.234375 7.328125 0.234375 Z M 2.578125 -6.109375 C 2.578125 -5.160156 2.773438 -4.328125 3.171875 -3.609375 C 3.578125 -2.890625 4.132812 -2.328125 4.84375 -1.921875 C 5.5625 -1.515625 6.390625 -1.3125 7.328125 -1.3125 C 8.265625 -1.3125 9.085938 -1.515625 9.796875 -1.921875 C 10.503906 -2.328125 11.054688 -2.890625 11.453125 -3.609375 C 11.859375 -4.328125 12.0625 -5.160156 12.0625 -6.109375 C 12.0625 -7.054688 11.859375 -7.882812 11.453125 -8.59375 C 11.054688 -9.3125 10.503906 -9.875 9.796875 -10.28125 C 9.085938 -10.6875 8.265625 -10.890625 7.328125 -10.890625 C 6.390625 -10.890625 5.5625 -10.6875 4.84375 -10.28125 C 4.132812 -9.875 3.578125 -9.3125 3.171875 -8.59375 C 2.773438 -7.882812 2.578125 -7.054688 2.578125 -6.109375 Z M 2.578125 -6.109375 "/></g></g></g><g fill="#ffffff" fill-opacity="1"><g transform="translate(169.277902, 277.595008)"><g><path d="M 1.78125 0 L 1.78125 -12.203125 L 8.765625 -12.203125 L 8.765625 -10.78125 L 3.3125 -10.78125 L 3.3125 -6.5625 L 8.3125 -6.5625 L 8.3125 -5.140625 L 3.3125 -5.140625 L 3.3125 0 Z M 1.78125 0 "/></g></g></g><g fill="#ffffff" fill-opacity="1"><g transform="translate(184.391675, 277.595008)"><g><path d="M 1.78125 0 L 1.78125 -12.203125 L 8.765625 -12.203125 L 8.765625 -10.78125 L 3.3125 -10.78125 L 3.3125 -6.5625 L 8.3125 -6.5625 L 8.3125 -5.140625 L 3.3125 -5.140625 L 3.3125 0 Z M 1.78125 0 "/></g></g></g><g fill="#ffffff" fill-opacity="1"><g transform="translate(199.505448, 277.595008)"><g><path d="M 1.78125 0 L 1.78125 -12.203125 L 9.1875 -12.203125 L 9.1875 -10.78125 L 3.3125 -10.78125 L 3.3125 -6.921875 L 8.75 -6.921875 L 8.75 -5.515625 L 3.3125 -5.515625 L 3.3125 -1.4375 L 9.375 -1.4375 L 9.375 0 Z M 1.78125 0 "/></g></g></g><g fill="#ffffff" fill-opacity="1"><g transform="translate(215.403468, 277.595008)"><g><path d="M 1.78125 0 L 1.78125 -12.203125 L 9.1875 -12.203125 L 9.1875 -10.78125 L 3.3125 -10.78125 L 3.3125 -6.921875 L 8.75 -6.921875 L 8.75 -5.515625 L 3.3125 -5.515625 L 3.3125 -1.4375 L 9.375 -1.4375 L 9.375 0 Z M 1.78125 0 "/></g></g></g><g fill="#ffffff" fill-opacity="1"><g transform="translate(231.310835, 277.595008)"><g/></g></g><g fill="#ffffff" fill-opacity="1"><g transform="translate(241.022051, 277.595008)"><g/></g></g></svg>