<svg xmlns="http://www.w3.org/2000/svg" width="10" height="12" viewBox="0 0 10 12" fill="none">
<g clip-path="url(#clip0_111_398)">
<path d="M4.54301 11.2615C1.40807 6.71676 0.826172 6.25034 0.826172 4.58008C0.826172 2.29219 2.68086 0.4375 4.96875 0.4375C7.25664 0.4375 9.11133 2.29219 9.11133 4.58008C9.11133 6.25034 8.52943 6.71676 5.39449 11.2615C5.18876 11.5587 4.74872 11.5587 4.54301 11.2615ZM4.96875 6.30615C5.92204 6.30615 6.69482 5.53337 6.69482 4.58008C6.69482 3.62679 5.92204 2.854 4.96875 2.854C4.01546 2.854 3.24268 3.62679 3.24268 4.58008C3.24268 5.53337 4.01546 6.30615 4.96875 6.30615Z" fill="#3A3A3B"/>
</g>
<defs>
<clipPath id="clip0_111_398">
<rect width="8.28516" height="11.0469" fill="white" transform="translate(0.826172 0.4375)"/>
</clipPath>
</defs>
</svg>